:SAMPLES-PER-SECOND 30
:FULLY-SPECIFIED
:DEGREES
925
root  -54.8005 39.1601 -27.2221 -1.77112 0.57222 0.230835
RightUpLeg  -18.0952 -18.9781 -12.0756
RightLeg  21.835 3.55519 1.51475
RightFoot  1.566 -0.978212 8.75507
RightToes  0.000482159 0.542163 -0.142577
Spine  20.2733 0.519915 15.9824
Spine1  10.5657 6.1617 -8.86919
HEad  18.1737 -21.8971 -4.96108
LeftShoulder1  7.72017 -12.1102 -42.9859
LeftArm  -24.8467 23.9747 -25.8628
LeftForeArm  53.6455 -56.0053 -12.0914
LeftHand  -0.25398 0.0180481 5.50724
RightShoulder  5.74908 10.35 35.526
RightArm  -11.7515 24.7926 30.0379
RightForeArm  17.403 39.0527 7.9961
RightHand  -5.51675 14.4017 -31.9872
LeftUpLeg  -13.3409 -16.8477 4.36072
LeftLeg  45.7513 1.1171 1.66505
LeftFoot  -9.34361 0.109341 -3.96539
LeftToes  1.06246e-005 4.65854e-005 -8.18502e-006
926
root  -55.8867 39.3958 -27.0865 -0.406128 4.17702 0.310638
RightUpLeg  -18.3143 -21.8559 -10.6365
RightLeg  21.9605 2.62041 1.39056
RightFoot  1.07022 -0.792108 7.35037
RightToes  0.000482159 0.542163 -0.142577
Spine  21.0449 0.451793 17.3532
Spine1  10.1004 6.16832 -8.22483
HEad  17.7326 -23.6917 -4.67399
LeftShoulder1  7.95584 -12.4339 -43.4242
LeftArm  -24.2288 24.51 -25.8547
LeftForeArm  53.5009 -54.7531 -11.4632
LeftHand  -0.25398 0.0180481 5.50724
RightShoulder  5.623 10.1947 35.0856
RightArm  -12.7928 26.1376 28.4647
RightForeArm  16.3361 36.3265 7.26903
RightHand  -5.94813 15.337 -32.8679
LeftUpLeg  -17.6143 -13.5281 5.0614
LeftLeg  48.2131 4.43496 5.69826
LeftFoot  -5.20583 0.102409 -1.24251
LeftToes  1.06246e-005 4.65854e-005 -8.18502e-006
927
root  -56.8831 39.7209 -26.9411 0.757202 6.65829 1.32344
RightUpLeg  -18.171 -23.7261 -10.3214
RightLeg  21.1389 1.56796 1.39848
RightFoot  0.93458 -0.664623 6.22922
RightToes  0.000482159 0.542163 -0.142577
Spine  21.9013 0.586497 17.8626
Spine1  10.1094 6.48722 -8.31385
HEad  15.8928 -25.1983 -3.07412
LeftShoulder1  8.19281 -12.7106 -43.9857
LeftArm  -23.1276 24.9448 -25.4527
LeftForeArm  52.9062 -53.5189 -10.9178
LeftHand  -0.25398 0.0180481 5.50724
RightShoulder  5.59564 10.2175 34.822
RightArm  -13.7954 27.9635 26.8417
RightForeArm  15.5953 33.1866 6.46833
RightHand  -6.33707 16.1916 -33.5753
LeftUpLeg  -19.8002 -9.26126 3.50119
LeftLeg  47.6918 7.28883 8.89109
LeftFoot  -4.48042 -0.00652065 0.597232
LeftToes  1.06246e-005 4.65854e-005 -8.18502e-006
928
root  -57.8087 40.0899 -26.7585 1.93964 8.63429 2.6335
RightUpLeg  -17.6603 -24.3752 -10.5497
RightLeg  19.6889 -0.211764 1.50007
RightFoot  0.484238 -0.53157 5.16113
RightToes  0.000482159 0.542163 -0.142577
Spine  22.4101 0.749789 17.9634
Spine1  10.5465 6.77092 -8.45395
HEad  14.0667 -26.6416 -1.66272
LeftShoulder1  8.32986 -12.7982 -44.5062
LeftArm  -22.1039 25.0793 -25.2459
LeftForeArm  51.972 -51.6584 -10.1578
LeftHand  -0.25398 0.0180481 5.50724
RightShoulder  5.6369 10.4023 34.5797
RightArm  -14.5386 30.0949 25.4366
RightForeArm  15.2365 29.605 5.5991
RightHand  -6.66003 16.9503 -34.0487
LeftUpLeg  -20.4512 -4.8608 0.905027
LeftLeg  44.2267 8.04473 8.71752
LeftFoot  -5.52454 0.0583668 -0.536666
LeftToes  1.06246e-005 4.65854e-005 -8.18502e-006
929
root  -58.668 40.3988 -26.5394 3.41858 10.6184 3.73967
RightUpLeg  -17.2239 -23.7283 -10.8246
RightLeg  18.0441 -3.0585 1.71449
RightFoot  0.284112 -0.4564 4.50094
RightToes  0.000482159 0.542163 -0.142577
Spine  22.332 0.942707 18.1159
Spine1  10.8217 6.90658 -8.34517
HEad  13.476 -27.5164 -1.35955
LeftShoulder1  8.39976 -12.8151 -44.8475
LeftArm  -21.1313 25.1597 -25.4231
LeftForeArm  50.7999 -49.1391 -9.21759
LeftHand  -0.25398 0.0180481 5.50724
RightShoulder  5.65049 10.5154 34.3517
RightArm  -14.6209 31.9976 24.3981
RightForeArm  14.8934 25.9694 4.77336
RightHand  -6.89485 17.515 -34.3526
LeftUpLeg  -20.5083 -0.628941 -1.83251
LeftLeg  38.6633 6.23819 5.72252
LeftFoot  -6.20496 0.190573 -3.38921
LeftToes  1.06246e-005 4.65854e-005 -8.18502e-006
